<svg id="visual" viewBox="0 0 900 150" width="900" height="150" xmlns="http://www.w3.org/2000/svg" xmlns:xlink="http://www.w3.org/1999/xlink" version="1.1">
  <rect x="0" y="0" width="900" height="150" fill="#ffffff"></rect>
  <path d="M0 130L18.8 121.5C37.7 113 75.3 96 112.8 84.8C150.3 73.7 187.7 68.3 225.2 67.8C262.7 67.3 300.3 71.7 337.8 79.8C375.3 88 412.7 100 450.2 106C487.7 112 525.3 112 562.8 109C600.3 106 637.7 100 675.2 96C712.7 92 750.3 90 787.8 94.2C825.3 98.3 862.7 108.7 881.3 113.8L900 119L900 0L881.3 0C862.7 0 825.3 0 787.8 0C750.3 0 712.7 0 675.2 0C637.7 0 600.3 0 562.8 0C525.3 0 487.7 0 450.2 0C412.7 0 375.3 0 337.8 0C300.3 0 262.7 0 225.2 0C187.7 0 150.3 0 112.8 0C75.3 0 37.7 0 18.8 0L0 0Z" fill="#045dd1" stroke-linecap="round" stroke-linejoin="miter"></path>
</svg>
